<svg xmlns="http://www.w3.org/2000/svg" xmlns:xlink="http://www.w3.org/1999/xlink" xmlns:lucid="lucid" width="1311.44" height="540"><g transform="translate(-320 -349.31547718872264)" lucid:page-tab-id="0_0"><path d="M0 0h1870.4v1323.2H0z" fill="#fff"/><path d="M891.44 369.32h720v420h-720z" stroke="#000" stroke-width="2" fill="#fff"/><use xlink:href="#a" transform="matrix(1,0,0,1,911.4402271056675,369.31547718872264) translate(287.05 213.6)"/><use xlink:href="#b" transform="matrix(1,0,0,1,911.4402271056675,369.31547718872264) translate(344.95000000000005 213.6)"/><path d="M1580.24 509.32c8.84 0 16 7.16 16 16v128c0 8.83-7.16 16-16 16h-168c-8.84 0-16-7.17-16-16v-128c0-8.84 7.16-16 16-16z" stroke="#000" stroke-width="2" fill="#fff"/><path d="M1396.24 557.32h200" stroke="#000" stroke-width="2" fill="none"/><use xlink:href="#c" transform="matrix(1,0,0,1,1416.2402271056676,509.31547718872264) translate(67.5 27.6)"/><use xlink:href="#d" transform="matrix(1,0,0,1,1416.2402271056676,567.3154771887226) translate(40.9 49.6)"/><use xlink:href="#e" transform="matrix(1,0,0,1,1416.2402271056676,567.3154771887226) translate(70.2 49.6)"/><path d="M1100.24 509.32c8.84 0 16 7.16 16 16v128c0 8.83-7.16 16-16 16h-168c-8.84 0-16-7.17-16-16v-128c0-8.84 7.16-16 16-16z" stroke="#000" stroke-width="2" fill="#fff"/><path d="M916.24 557.32h200" stroke="#000" stroke-width="2" fill="none"/><use xlink:href="#c" transform="matrix(1,0,0,1,936.2402271056676,509.31547718872264) translate(67.5 27.6)"/><use xlink:href="#f" transform="matrix(1,0,0,1,936.2402271056676,567.3154771887226) translate(15.274999999999991 49.6)"/><use xlink:href="#g" transform="matrix(1,0,0,1,936.2402271056676,567.3154771887226) translate(63.175 49.6)"/><use xlink:href="#h" transform="matrix(1,0,0,1,936.2402271056676,567.3154771887226) translate(115.72500000000001 49.6)"/><path d="M1118.24 529.32h258.5" stroke="#000" stroke-width="2" fill="none"/><path d="M1118.27 530.32h-1.03v-2h1.03z"/><path d="M1392 529.32l-14.26 4.63v-9.27z" stroke="#000" stroke-width="2"/><path d="M1394.24 650.65h-258.5" stroke="#000" stroke-width="2" fill="none"/><path d="M1395.24 651.65h-1.03v-2h1.04z"/><path d="M1120.48 650.65l14.26-4.63v9.27z" stroke="#000" stroke-width="2"/><path d="M1131.44 449.32h240v60h-240z" stroke="#000" stroke-opacity="0" stroke-width="2" fill="#fff" fill-opacity="0"/><use xlink:href="#i" transform="matrix(1,0,0,1,1136.440227105621,454.31547718872264) translate(62.074999999999996 30.025)"/><use xlink:href="#j" transform="matrix(1,0,0,1,1136.440227105621,454.31547718872264) translate(128.975 30.025)"/><path d="M1136.24 669.32h240v60h-240z" stroke="#000" stroke-opacity="0" stroke-width="2" fill="#fff" fill-opacity="0"/><use xlink:href="#k" transform="matrix(1,0,0,1,1141.2402271056676,674.3154771887226) translate(75.07499999999999 30.025)"/><path d="M876.24 809.32h240v60h-240z" stroke="#000" stroke-opacity="0" stroke-width="2" fill="#fff" fill-opacity="0"/><use xlink:href="#l" transform="matrix(1,0,0,1,881.2402271056676,814.3154771887226) translate(57.599999999999994 30.025)"/><use xlink:href="#m" transform="matrix(1,0,0,1,881.2402271056676,814.3154771887226) translate(91.6 30.025)"/><use xlink:href="#n" transform="matrix(1,0,0,1,881.2402271056676,814.3154771887226) translate(134.55 30.025)"/><path d="M540 369.32c11.05 0 20 8.95 20 20v400c0 11.04-8.95 20-20 20H380c-11.05 0-20-8.96-20-20v-400c0-11.05 8.95-20 20-20z" stroke="#000" stroke-width="2" fill="#fff"/><use xlink:href="#o" transform="matrix(1,0,0,1,380,369.31547718872264) translate(34.55 223.6)"/><use xlink:href="#b" transform="matrix(1,0,0,1,380,369.31547718872264) translate(77.45 223.6)"/><path d="M340 449.32h240v60H340z" stroke="#000" stroke-opacity="0" stroke-width="2" fill="#fff" fill-opacity="0"/><use xlink:href="#p" transform="matrix(1,0,0,1,345,454.31547718872264) translate(79.05 30.025)"/><path d="M562 500h309.94" stroke="#000" stroke-width="2" fill="none"/><path d="M562.03 501H561v-2h1.03z"/><path d="M887.2 500l-14.26 4.64v-9.28z" stroke="#000" stroke-width="2"/><path d="M600 449.32h240v60H600z" stroke="#000" stroke-opacity="0" stroke-width="2" fill="#fff" fill-opacity="0"/><g><use xlink:href="#q" transform="matrix(1,0,0,1,605,454.31547718872264) translate(60.025 30.025)"/><use xlink:href="#r" transform="matrix(1,0,0,1,605,454.31547718872264) translate(105.025 30.025)"/></g><path d="M889.44 674.67H579.5" stroke="#000" stroke-width="2" fill="none"/><path d="M890.44 675.67h-1.03v-2h1.04z"/><path d="M564.24 674.67l14.26-4.63v9.27z" stroke="#000" stroke-width="2"/><path d="M605.72 620h240v60h-240z" stroke="#000" stroke-opacity="0" stroke-width="2" fill="#fff" fill-opacity="0"/><g><use xlink:href="#s" transform="matrix(1,0,0,1,610.720113552874,625) translate(42.07499999999999 30.025)"/><use xlink:href="#t" transform="matrix(1,0,0,1,610.720113552874,625) translate(101.07499999999999 30.025)"/></g><defs><path d="M185-189c-5-48-123-54-124 2 14 75 158 14 163 119 3 78-121 87-175 55-17-10-28-26-33-46l33-7c5 56 141 63 141-1 0-78-155-14-162-118-5-82 145-84 179-34 5 7 8 16 11 25" id="u"/><path d="M100-194c63 0 86 42 84 106H49c0 40 14 67 53 68 26 1 43-12 49-29l28 8c-11 28-37 45-77 45C44 4 14-33 15-96c1-61 26-98 85-98zm52 81c6-60-76-77-97-28-3 7-6 17-6 28h103" id="v"/><path d="M114-163C36-179 61-72 57 0H25l-1-190h30c1 12-1 29 2 39 6-27 23-49 58-41v29" id="w"/><path d="M108 0H70L1-190h34L89-25l56-165h34" id="x"/><g id="a"><use transform="matrix(0.05,0,0,0.05,0,0)" xlink:href="#u"/><use transform="matrix(0.05,0,0,0.05,12,0)" xlink:href="#v"/><use transform="matrix(0.05,0,0,0.05,22,0)" xlink:href="#w"/><use transform="matrix(0.05,0,0,0.05,27.950000000000003,0)" xlink:href="#x"/><use transform="matrix(0.05,0,0,0.05,36.95,0)" xlink:href="#v"/><use transform="matrix(0.05,0,0,0.05,46.95,0)" xlink:href="#w"/></g><path d="M135-143c-3-34-86-38-87 0 15 53 115 12 119 90S17 21 10-45l28-5c4 36 97 45 98 0-10-56-113-15-118-90-4-57 82-63 122-42 12 7 21 19 24 35" id="y"/><path d="M115-194c55 1 70 41 70 98S169 2 115 4C84 4 66-9 55-30l1 105H24l-1-265h31l2 30c10-21 28-34 59-34zm-8 174c40 0 45-34 45-75s-6-73-45-74c-42 0-51 32-51 76 0 43 10 73 51 73" id="z"/><path d="M141-36C126-15 110 5 73 4 37 3 15-17 15-53c-1-64 63-63 125-63 3-35-9-54-41-54-24 1-41 7-42 31l-33-3c5-37 33-52 76-52 45 0 72 20 72 64v82c-1 20 7 32 28 27v20c-31 9-61-2-59-35zM48-53c0 20 12 33 32 33 41-3 63-29 60-74-43 2-92-5-92 41" id="A"/><path d="M96-169c-40 0-48 33-48 73s9 75 48 75c24 0 41-14 43-38l32 2c-6 37-31 61-74 61-59 0-76-41-82-99-10-93 101-131 147-64 4 7 5 14 7 22l-32 3c-4-21-16-35-41-35" id="B"/><g id="b"><use transform="matrix(0.05,0,0,0.05,0,0)" xlink:href="#y"/><use transform="matrix(0.05,0,0,0.05,9,0)" xlink:href="#z"/><use transform="matrix(0.05,0,0,0.05,19,0)" xlink:href="#A"/><use transform="matrix(0.05,0,0,0.05,29,0)" xlink:href="#B"/><use transform="matrix(0.05,0,0,0.05,38,0)" xlink:href="#v"/></g><path d="M27 0v-27h64v-190l-56 39v-29l58-41h29v221h61V0H27" id="C"/><path d="M33 0v-38h34V0H33" id="D"/><path d="M101-251c68 0 85 55 85 127S166 4 100 4C33 4 14-52 14-124c0-73 17-127 87-127zm-1 229c47 0 54-49 54-102s-4-102-53-102c-51 0-55 48-55 102 0 53 5 102 54 102" id="E"/><g id="c"><use transform="matrix(0.05,0,0,0.05,0,0)" xlink:href="#C"/><use transform="matrix(0.05,0,0,0.05,10,0)" xlink:href="#D"/><use transform="matrix(0.05,0,0,0.05,15,0)" xlink:href="#E"/></g><path d="M240 0l2-218c-23 76-54 145-80 218h-23L58-218 59 0H30v-248h44l77 211c21-75 51-140 76-211h43V0h-30" id="F"/><path d="M30 0v-248h33v221h125V0H30" id="G"/><g id="d"><use transform="matrix(0.05,0,0,0.05,0,0)" xlink:href="#F"/><use transform="matrix(0.05,0,0,0.05,14.950000000000001,0)" xlink:href="#G"/></g><path d="M100-194c62-1 85 37 85 99 1 63-27 99-86 99S16-35 15-95c0-66 28-99 85-99zM99-20c44 1 53-31 53-75 0-43-8-75-51-75s-53 32-53 75 10 74 51 75" id="H"/><path d="M85-194c31 0 48 13 60 33l-1-100h32l1 261h-30c-2-10 0-23-3-31C134-8 116 4 85 4 32 4 16-35 15-94c0-66 23-100 70-100zm9 24c-40 0-46 34-46 75 0 40 6 74 45 74 42 0 51-32 51-76 0-42-9-74-50-73" id="I"/><path d="M24 0v-261h32V0H24" id="J"/><g id="e"><use transform="matrix(0.05,0,0,0.05,0,0)" xlink:href="#F"/><use transform="matrix(0.05,0,0,0.05,14.950000000000001,0)" xlink:href="#H"/><use transform="matrix(0.05,0,0,0.05,24.950000000000003,0)" xlink:href="#I"/><use transform="matrix(0.05,0,0,0.05,34.95,0)" xlink:href="#v"/><use transform="matrix(0.05,0,0,0.05,44.95,0)" xlink:href="#J"/></g><path d="M63-220v92h138v28H63V0H30v-248h175v28H63" id="K"/><path d="M143 0L79-87 56-68V0H24v-261h32v163l83-92h37l-77 82L181 0h-38" id="L"/><g id="f"><use transform="matrix(0.05,0,0,0.05,0,0)" xlink:href="#K"/><use transform="matrix(0.05,0,0,0.05,10.950000000000001,0)" xlink:href="#J"/><use transform="matrix(0.05,0,0,0.05,14.9,0)" xlink:href="#A"/><use transform="matrix(0.05,0,0,0.05,24.900000000000002,0)" xlink:href="#y"/><use transform="matrix(0.05,0,0,0.05,33.900000000000006,0)" xlink:href="#L"/></g><path d="M233-177c-1 41-23 64-60 70L243 0h-38l-65-103H63V0H30v-248c88 3 205-21 203 71zM63-129c60-2 137 13 137-47 0-61-80-42-137-45v92" id="M"/><path d="M30 0v-248h187v28H63v79h144v27H63v87h162V0H30" id="N"/><path d="M127-220V0H93v-220H8v-28h204v28h-85" id="O"/><g id="g"><use transform="matrix(0.05,0,0,0.05,0,0)" xlink:href="#M"/><use transform="matrix(0.05,0,0,0.05,12.950000000000001,0)" xlink:href="#N"/><use transform="matrix(0.05,0,0,0.05,24.950000000000003,0)" xlink:href="#u"/><use transform="matrix(0.05,0,0,0.05,36.95,0)" xlink:href="#O"/></g><path d="M205 0l-28-72H64L36 0H1l101-248h38L239 0h-34zm-38-99l-47-123c-12 45-31 82-46 123h93" id="P"/><path d="M30-248c87 1 191-15 191 75 0 78-77 80-158 76V0H30v-248zm33 125c57 0 124 11 124-50 0-59-68-47-124-48v98" id="Q"/><path d="M33 0v-248h34V0H33" id="R"/><g id="h"><use transform="matrix(0.05,0,0,0.05,0,0)" xlink:href="#P"/><use transform="matrix(0.05,0,0,0.05,12,0)" xlink:href="#Q"/><use transform="matrix(0.05,0,0,0.05,24,0)" xlink:href="#R"/></g><path d="M59-47c-2 24 18 29 38 22v24C64 9 27 4 27-40v-127H5v-23h24l9-43h21v43h35v23H59v120" id="S"/><path d="M84 4C-5 8 30-112 23-190h32v120c0 31 7 50 39 49 72-2 45-101 50-169h31l1 190h-30c-1-10 1-25-2-33-11 22-28 36-60 37" id="T"/><g id="i"><use transform="matrix(0.05,0,0,0.05,0,0)" xlink:href="#K"/><use transform="matrix(0.05,0,0,0.05,10.950000000000001,0)" xlink:href="#v"/><use transform="matrix(0.05,0,0,0.05,20.950000000000003,0)" xlink:href="#A"/><use transform="matrix(0.05,0,0,0.05,30.950000000000003,0)" xlink:href="#S"/><use transform="matrix(0.05,0,0,0.05,35.95,0)" xlink:href="#T"/><use transform="matrix(0.05,0,0,0.05,45.95,0)" xlink:href="#w"/><use transform="matrix(0.05,0,0,0.05,51.900000000000006,0)" xlink:href="#v"/></g><g id="j"><use transform="matrix(0.05,0,0,0.05,0,0)" xlink:href="#S"/><use transform="matrix(0.05,0,0,0.05,5,0)" xlink:href="#T"/><use transform="matrix(0.05,0,0,0.05,15,0)" xlink:href="#z"/><use transform="matrix(0.05,0,0,0.05,25,0)" xlink:href="#J"/><use transform="matrix(0.05,0,0,0.05,28.950000000000003,0)" xlink:href="#v"/></g><path d="M24-231v-30h32v30H24zM24 0v-190h32V0H24" id="U"/><path d="M117-194c89-4 53 116 60 194h-32v-121c0-31-8-49-39-48C34-167 62-67 57 0H25l-1-190h30c1 10-1 24 2 32 11-22 29-35 61-36" id="V"/><g id="k"><use transform="matrix(0.05,0,0,0.05,0,0)" xlink:href="#Q"/><use transform="matrix(0.05,0,0,0.05,12,0)" xlink:href="#w"/><use transform="matrix(0.05,0,0,0.05,17.95,0)" xlink:href="#v"/><use transform="matrix(0.05,0,0,0.05,27.950000000000003,0)" xlink:href="#I"/><use transform="matrix(0.05,0,0,0.05,37.95,0)" xlink:href="#U"/><use transform="matrix(0.05,0,0,0.05,41.900000000000006,0)" xlink:href="#B"/><use transform="matrix(0.05,0,0,0.05,50.900000000000006,0)" xlink:href="#S"/><use transform="matrix(0.05,0,0,0.05,55.900000000000006,0)" xlink:href="#U"/><use transform="matrix(0.05,0,0,0.05,59.85,0)" xlink:href="#H"/><use transform="matrix(0.05,0,0,0.05,69.85000000000001,0)" xlink:href="#V"/></g><g id="l"><use transform="matrix(0.05,0,0,0.05,0,0)" xlink:href="#P"/><use transform="matrix(0.05,0,0,0.05,12,0)" xlink:href="#Q"/><use transform="matrix(0.05,0,0,0.05,24,0)" xlink:href="#R"/></g><path d="M30-248c118-7 216 8 213 122C240-48 200 0 122 0H30v-248zM63-27c89 8 146-16 146-99s-60-101-146-95v194" id="W"/><g id="m"><use transform="matrix(0.05,0,0,0.05,0,0)" xlink:href="#W"/><use transform="matrix(0.05,0,0,0.05,12.950000000000001,0)" xlink:href="#A"/><use transform="matrix(0.05,0,0,0.05,22.950000000000003,0)" xlink:href="#S"/><use transform="matrix(0.05,0,0,0.05,27.950000000000003,0)" xlink:href="#A"/></g><path d="M206 0h-36l-40-164L89 0H53L-1-190h32L70-26l43-164h34l41 164 42-164h31" id="X"/><g id="n"><use transform="matrix(0.05,0,0,0.05,0,0)" xlink:href="#K"/><use transform="matrix(0.05,0,0,0.05,10.950000000000001,0)" xlink:href="#J"/><use transform="matrix(0.05,0,0,0.05,14.9,0)" xlink:href="#H"/><use transform="matrix(0.05,0,0,0.05,24.900000000000002,0)" xlink:href="#X"/></g><path d="M232-93c-1 65-40 97-104 97C67 4 28-28 28-90v-158h33c8 89-33 224 67 224 102 0 64-133 71-224h33v155" id="Y"/><g id="o"><use transform="matrix(0.05,0,0,0.05,0,0)" xlink:href="#Y"/><use transform="matrix(0.05,0,0,0.05,12.950000000000001,0)" xlink:href="#y"/><use transform="matrix(0.05,0,0,0.05,21.950000000000003,0)" xlink:href="#v"/><use transform="matrix(0.05,0,0,0.05,31.950000000000003,0)" xlink:href="#w"/></g><g id="p"><use transform="matrix(0.05,0,0,0.05,0,0)" xlink:href="#K"/><use transform="matrix(0.05,0,0,0.05,10.950000000000001,0)" xlink:href="#w"/><use transform="matrix(0.05,0,0,0.05,16.900000000000002,0)" xlink:href="#H"/><use transform="matrix(0.05,0,0,0.05,26.900000000000002,0)" xlink:href="#V"/><use transform="matrix(0.05,0,0,0.05,36.900000000000006,0)" xlink:href="#S"/><use transform="matrix(0.05,0,0,0.05,41.900000000000006,0)" xlink:href="#v"/><use transform="matrix(0.05,0,0,0.05,51.900000000000006,0)" xlink:href="#V"/><use transform="matrix(0.05,0,0,0.05,61.900000000000006,0)" xlink:href="#I"/></g><g id="q"><use transform="matrix(0.05,0,0,0.05,0,0)" xlink:href="#R"/><use transform="matrix(0.05,0,0,0.05,5,0)" xlink:href="#V"/><use transform="matrix(0.05,0,0,0.05,15,0)" xlink:href="#z"/><use transform="matrix(0.05,0,0,0.05,25,0)" xlink:href="#T"/><use transform="matrix(0.05,0,0,0.05,35,0)" xlink:href="#S"/></g><path d="M101-234c-31-9-42 10-38 44h38v23H63V0H32v-167H5v-23h27c-7-52 17-82 69-68v24" id="Z"/><g id="r"><use transform="matrix(0.05,0,0,0.05,0,0)" xlink:href="#Z"/><use transform="matrix(0.05,0,0,0.05,5,0)" xlink:href="#v"/><use transform="matrix(0.05,0,0,0.05,15,0)" xlink:href="#A"/><use transform="matrix(0.05,0,0,0.05,25,0)" xlink:href="#S"/><use transform="matrix(0.05,0,0,0.05,30,0)" xlink:href="#T"/><use transform="matrix(0.05,0,0,0.05,40,0)" xlink:href="#w"/><use transform="matrix(0.05,0,0,0.05,45.95,0)" xlink:href="#v"/><use transform="matrix(0.05,0,0,0.05,55.95,0)" xlink:href="#y"/></g><path d="M140-251c81 0 123 46 123 126C263-46 219 4 140 4 59 4 17-45 17-125s42-126 123-126zm0 227c63 0 89-41 89-101s-29-99-89-99c-61 0-89 39-89 99S79-25 140-24" id="aa"/><g id="s"><use transform="matrix(0.05,0,0,0.05,0,0)" xlink:href="#aa"/><use transform="matrix(0.05,0,0,0.05,14,0)" xlink:href="#T"/><use transform="matrix(0.05,0,0,0.05,24,0)" xlink:href="#S"/><use transform="matrix(0.05,0,0,0.05,29,0)" xlink:href="#z"/><use transform="matrix(0.05,0,0,0.05,39,0)" xlink:href="#T"/><use transform="matrix(0.05,0,0,0.05,49,0)" xlink:href="#S"/></g><g id="t"><use transform="matrix(0.05,0,0,0.05,0,0)" xlink:href="#z"/><use transform="matrix(0.05,0,0,0.05,10,0)" xlink:href="#w"/><use transform="matrix(0.05,0,0,0.05,15.949999999999998,0)" xlink:href="#v"/><use transform="matrix(0.05,0,0,0.05,25.950000000000003,0)" xlink:href="#I"/><use transform="matrix(0.05,0,0,0.05,35.95,0)" xlink:href="#U"/><use transform="matrix(0.05,0,0,0.05,39.900000000000006,0)" xlink:href="#B"/><use transform="matrix(0.05,0,0,0.05,48.900000000000006,0)" xlink:href="#S"/><use transform="matrix(0.05,0,0,0.05,53.900000000000006,0)" xlink:href="#U"/><use transform="matrix(0.05,0,0,0.05,57.85,0)" xlink:href="#H"/><use transform="matrix(0.05,0,0,0.05,67.85000000000001,0)" xlink:href="#V"/><use transform="matrix(0.05,0,0,0.05,77.85000000000001,0)" xlink:href="#y"/></g></defs></g></svg>